<svg width="127" height="26" viewBox="0 0 127 26" fill="none" xmlns="http://www.w3.org/2000/svg">
<rect y="0.5" width="36" height="25" rx="8" fill="#FDD503"/>
<path d="M17.9945 4.5C14.9585 4.5 12.5 6.964 12.5 10C12.5 13.036 14.9585 15.5 17.9945 15.5C21.036 15.5 23.5 13.036 23.5 10C23.5 6.964 21.036 4.5 17.9945 4.5ZM20.3265 13.3L18 11.8975L15.6735 13.3L16.2895 10.6545L14.238 8.878L16.944 8.647L18 6.15L19.056 8.6415L21.762 8.8725L19.7105 10.649L20.3265 13.3Z" fill="#232323"/>
<path d="M8 20.7147L9.236 21.5L8.908 20.02L10 19.0242L8.562 18.8958L8 17.5L7.438 18.8958L6 19.0242L7.092 20.02L6.764 21.5L8 20.7147Z" fill="#232323"/>
<path d="M13 20.7147L14.236 21.5L13.908 20.02L15 19.0242L13.562 18.8958L13 17.5L12.438 18.8958L11 19.0242L12.092 20.02L11.764 21.5L13 20.7147Z" fill="#232323"/>
<path d="M18 20.7147L19.236 21.5L18.908 20.02L20 19.0242L18.562 18.8958L18 17.5L17.438 18.8958L16 19.0242L17.092 20.02L16.764 21.5L18 20.7147Z" fill="#232323"/>
<path d="M23 20.7147L24.236 21.5L23.908 20.02L25 19.0242L23.562 18.8958L23 17.5L22.438 18.8958L21 19.0242L22.092 20.02L21.764 21.5L23 20.7147Z" fill="#232323"/>
<path d="M28 20.7147L29.236 21.5L28.908 20.02L30 19.0242L28.562 18.8958L28 17.5L27.438 18.8958L26 19.0242L27.092 20.02L26.764 21.5L28 20.7147Z" fill="#232323"/>
<path d="M42.2891 10.7344V21H39.4648V8.32031H42.1602L42.2891 10.7344ZM46.168 8.23828L46.1445 10.8633C45.9727 10.832 45.7852 10.8086 45.582 10.793C45.3867 10.7773 45.1914 10.7695 44.9961 10.7695C44.5117 10.7695 44.0859 10.8398 43.7188 10.9805C43.3516 11.1133 43.043 11.3086 42.793 11.5664C42.5508 11.8164 42.3633 12.1211 42.2305 12.4805C42.0977 12.8398 42.0195 13.2422 41.9961 13.6875L41.3516 13.7344C41.3516 12.9375 41.4297 12.1992 41.5859 11.5195C41.7422 10.8398 41.9766 10.2422 42.2891 9.72656C42.6094 9.21094 43.0078 8.80859 43.4844 8.51953C43.9688 8.23047 44.5273 8.08594 45.1602 8.08594C45.332 8.08594 45.5156 8.10156 45.7109 8.13281C45.9141 8.16406 46.0664 8.19922 46.168 8.23828ZM51.853 21.2344C50.9155 21.2344 50.0678 21.082 49.31 20.7773C48.56 20.4648 47.9194 20.0312 47.3881 19.4766C46.8647 18.9219 46.4623 18.2695 46.1811 17.5195C45.8998 16.7695 45.7592 15.9609 45.7592 15.0938V14.625C45.7592 13.6328 45.9037 12.7344 46.1928 11.9297C46.4819 11.125 46.8842 10.4375 47.3998 9.86719C47.9155 9.28906 48.5248 8.84766 49.228 8.54297C49.9311 8.23828 50.6928 8.08594 51.5131 8.08594C52.4194 8.08594 53.2123 8.23828 53.892 8.54297C54.5717 8.84766 55.1342 9.27734 55.5795 9.83203C56.0327 10.3789 56.3686 11.0312 56.5873 11.7891C56.8139 12.5469 56.9272 13.3828 56.9272 14.2969V15.5039H47.1303V13.4766H54.1381V13.2539C54.1225 12.7461 54.0209 12.2695 53.8334 11.8242C53.6537 11.3789 53.3764 11.0195 53.0014 10.7461C52.6264 10.4727 52.1264 10.3359 51.5014 10.3359C51.0327 10.3359 50.6147 10.4375 50.2475 10.6406C49.8881 10.8359 49.5873 11.1211 49.3452 11.4961C49.103 11.8711 48.9155 12.3242 48.7827 12.8555C48.6577 13.3789 48.5952 13.9688 48.5952 14.625V15.0938C48.5952 15.6484 48.6694 16.1641 48.8178 16.6406C48.9741 17.1094 49.2006 17.5195 49.4975 17.8711C49.7944 18.2227 50.1537 18.5 50.5756 18.7031C50.9975 18.8984 51.478 18.9961 52.017 18.9961C52.6967 18.9961 53.3022 18.8594 53.8334 18.5859C54.3647 18.3125 54.8256 17.9258 55.2162 17.4258L56.7045 18.8672C56.4311 19.2656 56.0756 19.6484 55.6381 20.0156C55.2006 20.375 54.6655 20.668 54.0327 20.8945C53.4077 21.1211 52.6811 21.2344 51.853 21.2344ZM61.6512 18.7617L64.7567 8.32031H67.6864L63.2802 21H61.452L61.6512 18.7617ZM59.2723 8.32031L62.4364 18.8086L62.5887 21H60.7606L56.3309 8.32031H59.2723ZM71.0159 8.32031V21H68.18V8.32031H71.0159ZM67.9925 4.99219C67.9925 4.5625 68.1331 4.20703 68.4144 3.92578C68.7034 3.63672 69.1019 3.49219 69.6097 3.49219C70.1097 3.49219 70.5042 3.63672 70.7933 3.92578C71.0823 4.20703 71.2269 4.5625 71.2269 4.99219C71.2269 5.41406 71.0823 5.76562 70.7933 6.04688C70.5042 6.32812 70.1097 6.46875 69.6097 6.46875C69.1019 6.46875 68.7034 6.32812 68.4144 6.04688C68.1331 5.76562 67.9925 5.41406 67.9925 4.99219ZM78.2595 21.2344C77.322 21.2344 76.4744 21.082 75.7166 20.7773C74.9666 20.4648 74.3259 20.0312 73.7947 19.4766C73.2712 18.9219 72.8689 18.2695 72.5877 17.5195C72.3064 16.7695 72.1658 15.9609 72.1658 15.0938V14.625C72.1658 13.6328 72.3103 12.7344 72.5994 11.9297C72.8884 11.125 73.2908 10.4375 73.8064 9.86719C74.322 9.28906 74.9314 8.84766 75.6345 8.54297C76.3377 8.23828 77.0994 8.08594 77.9197 8.08594C78.8259 8.08594 79.6189 8.23828 80.2986 8.54297C80.9783 8.84766 81.5408 9.27734 81.9861 9.83203C82.4392 10.3789 82.7752 11.0312 82.9939 11.7891C83.2205 12.5469 83.3337 13.3828 83.3337 14.2969V15.5039H73.5369V13.4766H80.5447V13.2539C80.5291 12.7461 80.4275 12.2695 80.24 11.8242C80.0603 11.3789 79.783 11.0195 79.408 10.7461C79.033 10.4727 78.533 10.3359 77.908 10.3359C77.4392 10.3359 77.0212 10.4375 76.6541 10.6406C76.2947 10.8359 75.9939 11.1211 75.7517 11.4961C75.5095 11.8711 75.322 12.3242 75.1892 12.8555C75.0642 13.3789 75.0017 13.9688 75.0017 14.625V15.0938C75.0017 15.6484 75.0759 16.1641 75.2244 16.6406C75.3806 17.1094 75.6072 17.5195 75.9041 17.8711C76.2009 18.2227 76.5603 18.5 76.9822 18.7031C77.4041 18.8984 77.8845 18.9961 78.4236 18.9961C79.1033 18.9961 79.7087 18.8594 80.24 18.5859C80.7712 18.3125 81.2322 17.9258 81.6228 17.4258L83.1111 18.8672C82.8377 19.2656 82.4822 19.6484 82.0447 20.0156C81.6072 20.375 81.072 20.668 80.4392 20.8945C79.8142 21.1211 79.0877 21.2344 78.2595 21.2344ZM87.5422 18.1875L90.4719 8.32031H92.2766L91.7844 11.2734L88.8312 21H87.2141L87.5422 18.1875ZM85.8195 8.32031L88.1047 18.2344L88.2922 21H86.4875L83.0539 8.32031H85.8195ZM95.0187 18.1172L97.2336 8.32031H99.9875L96.5656 21H94.7609L95.0187 18.1172ZM92.5812 8.32031L95.4758 18.0703L95.8391 21H94.2219L91.2336 11.2617L90.7414 8.32031H92.5812ZM111.919 18.668V21H102.86V18.668H111.919ZM103.692 3.9375V21H100.751V3.9375H103.692ZM110.735 11.0625V13.3594H102.86V11.0625H110.735ZM111.86 3.9375V6.28125H102.86V3.9375H111.86ZM117.838 21H114.193L114.217 18.668H117.838C118.893 18.668 119.775 18.4375 120.486 17.9766C121.205 17.5156 121.744 16.8555 122.104 15.9961C122.471 15.1367 122.654 14.1133 122.654 12.9258V12C122.654 11.0781 122.549 10.2617 122.338 9.55078C122.135 8.83984 121.83 8.24219 121.424 7.75781C121.025 7.27344 120.533 6.90625 119.947 6.65625C119.369 6.40625 118.701 6.28125 117.943 6.28125H114.123V3.9375H117.943C119.076 3.9375 120.111 4.12891 121.049 4.51172C121.986 4.88672 122.795 5.42969 123.475 6.14062C124.162 6.85156 124.69 7.70312 125.057 8.69531C125.424 9.6875 125.607 10.7969 125.607 12.0234V12.9258C125.607 14.1523 125.424 15.2617 125.057 16.2539C124.69 17.2461 124.162 18.0977 123.475 18.8086C122.787 19.5117 121.967 20.0547 121.014 20.4375C120.068 20.8125 119.01 21 117.838 21ZM115.822 3.9375V21H112.881V3.9375H115.822Z" fill="#232323"/>
</svg>
