<svg width="25" height="25" viewBox="0 0 25 25" fill="none" xmlns="http://www.w3.org/2000/svg">
<path d="M12.5002 2.0835C6.75016 2.0835 2.0835 6.75016 2.0835 12.5002C2.0835 18.2502 6.75016 22.9168 12.5002 22.9168C18.2502 22.9168 22.9168 18.2502 22.9168 12.5002C22.9168 6.75016 18.2502 2.0835 12.5002 2.0835ZM12.5002 3.12516C17.6668 3.12516 21.8752 7.3335 21.8752 12.5002C21.8752 13.9793 21.521 15.3752 20.9064 16.6252C19.3127 14.8335 16.7606 13.6147 13.2189 13.4689C14.1832 13.3009 15.0575 12.7984 15.6881 12.0497C16.3186 11.301 16.6652 10.354 16.6668 9.37516C16.6668 7.07308 14.8022 5.2085 12.5002 5.2085C10.1981 5.2085 8.3335 7.07308 8.3335 9.37516C8.3335 11.4272 9.82308 13.1252 11.7814 13.4689C8.23975 13.6147 5.68766 14.8335 4.09391 16.6252C3.47933 15.3752 3.12516 13.9793 3.12516 12.5002C3.12516 7.3335 7.3335 3.12516 12.5002 3.12516ZM9.37516 9.37516C9.37516 7.65641 10.7814 6.25016 12.5002 6.25016C14.2189 6.25016 15.6252 7.65641 15.6252 9.37516C15.6252 11.0939 14.2189 12.5002 12.5002 12.5002C10.7814 12.5002 9.37516 11.0939 9.37516 9.37516ZM12.5002 21.8752C9.2085 21.8752 6.31266 20.1668 4.63558 17.5835C6.26058 15.5522 8.96891 14.4793 12.5002 14.4793C16.0314 14.4793 18.7397 15.5522 20.3647 17.5835C18.6877 20.1668 15.7918 21.8752 12.5002 21.8752Z" fill="#1F12AC"/>
</svg>
