<svg width="64" height="40" viewBox="0 0 64 40" fill="none" xmlns="http://www.w3.org/2000/svg">
<path d="M0.5 0.5H44C54.7696 0.5 63.5 9.23045 63.5 20C63.5 30.7696 54.7696 39.5 44 39.5H0.5V0.5Z" fill="#EBEBEB"/>
<path d="M0.5 0.5H44C54.7696 0.5 63.5 9.23045 63.5 20C63.5 30.7696 54.7696 39.5 44 39.5H0.5V0.5Z" stroke="#999999"/>
<path d="M40.87 28.17L35.28 22.58C36.35 21.35 37 19.75 37 18C37 14.13 33.87 11 30 11C26.13 11 23 14.13 23 18C23 21.87 26.13 25 30 25C31.75 25 33.35 24.35 34.58 23.29L40.17 28.88L40.87 28.17ZM30 24C26.69 24 24 21.31 24 18C24 14.69 26.69 12 30 12C33.31 12 36 14.69 36 18C36 21.31 33.31 24 30 24Z" fill="#232323"/>
</svg>
